<svg width="70" height="70" viewBox="0 0 70 70" fill="none" xmlns="http://www.w3.org/2000/svg">
<rect x="0.5" y="0.5" width="69" height="69" rx="24.5" stroke="#8D8D8D"/>
<path d="M47.9581 53.2289H22.0414C21.319 53.1995 20.6094 53.0278 19.9533 52.7238C19.2973 52.4198 18.7076 51.9894 18.218 51.4573C17.7284 50.9252 17.3486 50.3017 17.1003 49.6227C16.8519 48.9436 16.7399 48.2222 16.7706 47.4998V41.2498C16.7706 40.8354 16.9352 40.4379 17.2282 40.1449C17.5213 39.8519 17.9187 39.6873 18.3331 39.6873C18.7475 39.6873 19.1449 39.8519 19.4379 40.1449C19.731 40.4379 19.8956 40.8354 19.8956 41.2498V47.4998C19.8418 48.1184 20.0282 48.7339 20.4161 49.2188C20.804 49.7037 21.3636 50.0206 21.9789 50.1039H47.9581C48.5734 50.0206 49.1331 49.7037 49.521 49.2188C49.9088 48.7339 50.0952 48.1184 50.0414 47.4998V41.2498C50.0414 40.8354 50.2061 40.4379 50.4991 40.1449C50.7921 39.8519 51.1895 39.6873 51.6039 39.6873C52.0183 39.6873 52.4158 39.8519 52.7088 40.1449C53.0018 40.4379 53.1664 40.8354 53.1664 41.2498V47.4998C53.2288 48.9485 52.7166 50.3632 51.7412 51.4361C50.7658 52.509 49.4062 53.1534 47.9581 53.2289ZM43.3331 28.2289C43.1278 28.2299 42.9244 28.1899 42.7348 28.1112C42.5452 28.0324 42.3732 27.9167 42.2289 27.7706L34.9998 20.5414L27.7706 27.7706C27.4744 28.0466 27.0826 28.1969 26.6778 28.1897C26.273 28.1826 25.8868 28.0186 25.6005 27.7323C25.3143 27.446 25.1503 27.0598 25.1431 26.655C25.136 26.2502 25.2863 25.8585 25.5623 25.5623L33.8956 17.2289C34.1886 16.9363 34.5857 16.772 34.9998 16.772C35.4138 16.772 35.811 16.9363 36.1039 17.2289L44.4373 25.5623C44.7299 25.8552 44.8942 26.2524 44.8942 26.6664C44.8942 27.0805 44.7299 27.4776 44.4373 27.7706C44.293 27.9167 44.121 28.0324 43.9314 28.1112C43.7418 28.1899 43.5384 28.2299 43.3331 28.2289Z" fill="#8D8D8D"/>
<path d="M35 42.8127C34.5873 42.8073 34.193 42.6409 33.9011 42.349C33.6092 42.0572 33.4429 41.6629 33.4375 41.2502V18.3335C33.4375 17.9191 33.6021 17.5217 33.8951 17.2286C34.1882 16.9356 34.5856 16.771 35 16.771C35.4144 16.771 35.8118 16.9356 36.1049 17.2286C36.3979 17.5217 36.5625 17.9191 36.5625 18.3335V41.2502C36.5571 41.6629 36.3908 42.0572 36.0989 42.349C35.807 42.6409 35.4127 42.8073 35 42.8127Z" fill="#8D8D8D"/>
</svg>
