<svg width="30" height="31" viewBox="0 0 30 31" fill="none" xmlns="http://www.w3.org/2000/svg">
<path d="M14.635 30.05C12.595 30.05 10.675 29.675 8.875 28.925C7.105 28.205 5.56 27.185 4.24 25.865C2.92 24.545 1.885 23 1.135 21.23C0.385 19.43 0.0100001 17.48 0.0100001 15.38C0.0100001 13.28 0.385 11.345 1.135 9.575C1.915 7.775 2.98 6.215 4.33 4.895C5.68 3.545 7.255 2.495 9.055 1.745C10.885 0.994999 12.835 0.62 14.905 0.62C17.665 0.62 20.095 1.25 22.195 2.51C24.325 3.77 25.99 5.495 27.19 7.685C28.42 9.875 29.035 12.395 29.035 15.245C29.035 16.535 28.9 17.705 28.63 18.755C28.39 19.775 27.985 20.735 27.415 21.635L23.95 21.455C24.37 20.855 24.7 20.255 24.94 19.655C25.21 19.025 25.405 18.335 25.525 17.585C25.645 16.835 25.705 15.98 25.705 15.02C25.705 12.65 25.27 10.64 24.4 8.99C23.56 7.31 22.33 6.035 20.71 5.165C19.12 4.265 17.2 3.815 14.95 3.815C12.67 3.815 10.66 4.295 8.92 5.255C7.21 6.215 5.875 7.565 4.915 9.305C3.985 11.015 3.52 13.055 3.52 15.425C3.52 17.765 3.97 19.79 4.87 21.5C5.8 23.21 7.105 24.545 8.785 25.505C10.465 26.435 12.385 26.9 14.545 26.9C16.135 26.9 17.56 26.675 18.82 26.225C20.08 25.805 21.19 25.16 22.15 24.29L24.4 26.585C23.08 27.725 21.595 28.58 19.945 29.15C18.295 29.75 16.525 30.05 14.635 30.05ZM13.825 21.95C12.655 21.95 11.59 21.665 10.63 21.095C9.7 20.495 8.935 19.7 8.335 18.71C7.765 17.72 7.48 16.61 7.48 15.38C7.48 14.15 7.765 13.04 8.335 12.05C8.935 11.03 9.7 10.235 10.63 9.665C11.59 9.065 12.655 8.765 13.825 8.765C15.265 8.765 16.435 9.125 17.335 9.845C18.265 10.535 18.73 11.555 18.73 12.905V17.81C18.73 19.13 18.28 20.15 17.38 20.87C16.48 21.59 15.295 21.95 13.825 21.95ZM14.005 19.115C15.085 19.115 15.94 18.77 16.57 18.08C17.23 17.36 17.56 16.445 17.56 15.335C17.56 14.195 17.23 13.28 16.57 12.59C15.94 11.9 15.085 11.555 14.005 11.555C13.015 11.555 12.175 11.915 11.485 12.635C10.825 13.325 10.495 14.225 10.495 15.335C10.495 16.445 10.825 17.36 11.485 18.08C12.145 18.77 12.985 19.115 14.005 19.115ZM19.045 21.635V18.98H27.415V21.635H19.045ZM17.785 21.635V18.305L18.235 15.155L17.785 12.14V9.035H20.71V21.635H17.785Z" fill="#8D8D8D"/>
</svg>
